PathFileType	4	(x/y/z)	A01_SLOW_T0027.trc
DataRate	CameraRate	NumFrames	NumMarkers	Units	OrigDataRate	OrigDataStartFrame	OrigNumFrames
240	240	6	48	mm	240	86	340
Frame#	Time	TOP_HEAD			R_AC			L_AC			R_ASIS			L_ASIS			R_PSIS			L_PSIS			SACRAL			L_IC			R_IC			L_GT			R_GT			R_LAT_KNEE			R_MED_KNEE			L_MED_KNEE			L_LAT_KNEE			R_TOE			L_TOE			R_1ST_MET			L_1ST_MET			L_5TH_MET			R_5TH_MET			R_LAT_ANK			R_MED_ANK			L_MED_ANK			L_LAT_ANK			L_HEEL_SUP			R_HEEL_SUP			L_HEEL_LAT			R_HEEL_LAT			L_HEEL_MED			R_HEEL_MED			R_LL_PROX_POST			R_LL_PROX_ANT			R_LL_DIST_ANT			R_LL_DIST_POST			R_THIGH_PROX_POST			R_THIGH_PROX_ANT			R_THIGH_DIST_ANT			R_THIGH_DIST_POST			L_PROS_PROX_ANT			L_PROS_PROX_POST			L_PROS_DIST_POST			L_PROS_DIST_ANT			L_THIGH_PROX_ANT			L_THIGH_PROX_POST			L_THIGH_DIST_POST			L_THIGH_DIST_ANT			
		X1	Y1	Z1	X2	Y2	Z2	X3	Y3	Z3	X4	Y4	Z4	X5	Y5	Z5	X6	Y6	Z6	X7	Y7	Z7	X8	Y8	Z8	X9	Y9	Z9	X10	Y10	Z10	X11	Y11	Z11	X12	Y12	Z12	X13	Y13	Z13	X14	Y14	Z14	X15	Y15	Z15	X16	Y16	Z16	X17	Y17	Z17	X18	Y18	Z18	X19	Y19	Z19	X20	Y20	Z20	X21	Y21	Z21	X22	Y22	Z22	X23	Y23	Z23	X24	Y24	Z24	X25	Y25	Z25	X26	Y26	Z26	X27	Y27	Z27	X28	Y28	Z28	X29	Y29	Z29	X30	Y30	Z30	X31	Y31	Z31	X32	Y32	Z32	X33	Y33	Z33	X34	Y34	Z34	X35	Y35	Z35	X36	Y36	Z36	X37	Y37	Z37	X38	Y38	Z38	X39	Y39	Z39	X40	Y40	Z40	X41	Y41	Z41	X42	Y42	Z42	X43	Y43	Z43	X44	Y44	Z44	X45	Y45	Z45	X46	Y46	Z46	X47	Y47	Z47	X48	Y48	Z48	

86	0.35521	-265.55	1749.8	227.35	-486.38	1567.9	487.95	-534.18	1533.3	33.29	-504.46	1094.1	500.89	-483.54	1031.5	151.7	-716.1	1078.7	366.89	-703.07	1080.6	235.04	-725.04	1049.1	300.17	-513.56	1136.3	102.9	-526.33	1203.1	494.52	-541.02	948.38	112.41	-565.95	981.48	542.21	-540.3	578.47	520.95	NaN	NaN	NaN	-460.85	562.1	335.63	-485.42	567	179.49	-774.84	69.632	424.9	-327.28	84.293	240.39	-833.79	124.01	371.86	-404.92	57.601	299.18	-438.08	47.027	170.88	-873.84	137.46	499.18	-885.04	273.05	475.85	-862.56	274.4	376.3	-531.53	127.46	284.56	-566.5	118.85	218.19	-651.09	73.819	261.94	-961.58	331.52	407.29	-639.29	45.246	230.17	-981.28	311.68	439.86	-629.13	44.424	293.8	-974.83	309.73	380.01	-718.74	518.67	511.07	-678.97	462.74	536.96	-728.03	408.38	515.92	-763.38	449.29	499.65	-591.79	833.59	531.88	-524.73	860.82	536.99	-511.14	769.92	538.5	-574.82	745.23	529.75	-444.09	482.09	192.25	-499.52	485.05	183.24	-509.23	423.53	192.96	-455.42	427.39	200.42	-460.54	813.55	148.91	-531.48	811.04	134.35	-512.91	738.14	149.41	-448.36	741.56	162.37
87	0.35939	-261.49	1750.3	227.67	-482.85	1568.3	488.03	-529.58	1533.6	33.226	-500	1094.7	500.48	-479.17	1031.7	151.43	-711.75	1078.9	366.53	-698.69	1080.8	234.68	-720.65	1049.3	299.82	-509.31	1136.5	102.67	-522.31	1203.3	494.35	-536.8	948.57	112.18	-561.26	981.96	541.93	-532.11	579.07	521.02	NaN	NaN	NaN	-458.48	561.96	335.57	-482.94	566.95	179.45	-760.83	70.436	426.38	-327.18	84.195	240.35	-820.77	123.17	372.9	-404.84	57.572	299.15	-438.06	47.031	170.9	-861.16	136.92	500.1	-874.87	271.87	475.7	-852.28	273	376.16	-531.21	127.63	284.58	-566.12	119.2	218.2	-650.91	74.22	261.97	-952.53	328.58	406.65	-639.22	45.591	230.21	-971.84	308.59	439.33	-629.03	44.787	293.83	-965.28	306.25	379.49	-710.18	518.14	511.29	-670.03	462.44	537.11	-718.73	407.78	516.02	-754.36	448.47	499.78	-585.72	833.81	531.84	-518.82	861.58	536.92	-504.55	770.8	538.56	-568.03	745.58	529.84	-442.02	481.83	192.22	-497.43	485.06	183.21	-507.45	423.61	192.94	-453.62	427.21	200.39	-456.79	813.43	148.74	-527.76	811.23	134.21	-509.52	738.24	149.31	-444.93	741.39	162.27
88	0.36357	-257.43	1750.7	228.02	-479.32	1568.7	488.11	-524.96	1534.1	33.174	-495.58	1095.2	500.07	-474.81	1031.9	151.16	-707.42	1079.1	366.18	-694.33	1081.1	234.32	-716.28	1049.5	299.48	-505.07	1136.6	102.44	-518.32	1203.5	494.17	-532.59	948.74	111.95	-556.63	982.44	541.67	-523.96	579.68	521.08	NaN	NaN	NaN	-456.11	561.82	335.51	-480.46	566.89	179.41	-746.65	71.115	427.84	-327.07	84.089	240.31	-807.56	122.19	373.94	-404.76	57.543	299.13	-438.03	47.035	170.92	-848.29	136.21	501.02	-864.54	270.48	475.57	-841.83	271.39	376.03	-530.89	127.81	284.59	-565.74	119.56	218.2	-650.73	74.641	261.99	-943.3	325.38	406.05	-639.15	45.953	230.25	-962.2	305.24	438.83	-628.92	45.168	293.86	-955.52	302.53	378.99	-701.62	517.51	511.44	-661.08	462.09	537.24	-709.38	407.08	516.12	-745.29	447.52	499.88	-579.68	834.04	531.79	-512.96	862.36	536.86	-498.03	771.69	538.62	-561.3	745.95	529.93	-439.96	481.58	192.18	-495.34	485.08	183.18	-505.69	423.7	192.92	-451.82	427.04	200.35	-453.07	813.3	148.58	-524.06	811.4	134.06	-506.14	738.34	149.21	-441.53	741.22	162.16
89	0.36775	-253.37	1751.2	228.4	-475.79	1569	488.19	-520.31	1534.5	33.131	-491.21	1095.8	499.67	-470.48	1032.1	150.9	-703.11	1079.3	365.83	-689.99	1081.3	233.96	-711.93	1049.7	299.14	-500.84	1136.8	102.2	-514.35	1203.7	494.01	-528.4	948.91	111.72	-552.03	982.92	541.41	-515.87	580.3	521.11	-465.05	557.47	393.78	-453.74	561.68	335.45	-478	566.84	179.36	-732.3	71.674	429.27	-326.96	83.976	240.27	-794.18	121.06	374.96	-404.68	57.514	299.11	-438	47.037	170.94	-835.25	135.32	501.93	-854.06	268.88	475.45	-831.23	269.58	375.91	-530.55	128	284.59	-565.35	119.93	218.21	-650.54	75.079	262.02	-933.9	321.93	405.5	-639.08	46.333	230.29	-952.38	301.65	438.37	-628.81	45.565	293.9	-945.58	298.56	378.54	-693.07	516.79	511.52	-652.11	461.7	537.34	-699.98	406.3	516.21	-736.2	446.46	499.94	-573.7	834.29	531.73	-507.16	863.14	536.8	-491.57	772.6	538.67	-554.63	746.33	530	-437.9	481.33	192.15	-493.27	485.09	183.15	-503.92	423.78	192.89	-450.04	426.87	200.31	-449.38	813.17	148.43	-520.37	811.58	133.9	-502.78	738.44	149.09	-438.14	741.04	162.06
90	0.37193	-249.3	1751.6	228.8	-472.26	1569.4	488.29	-515.65	1534.9	33.098	-486.88	1096.3	499.29	-466.15	1032.3	150.64	-698.82	1079.5	365.49	-685.67	1081.6	233.62	-707.6	1049.9	298.8	-496.6	1137	101.97	-510.4	1203.9	493.85	-524.22	949.08	111.49	-547.47	983.39	541.16	-507.82	580.94	521.12	-457.89	558.37	393.87	-451.36	561.54	335.4	-475.54	566.79	179.32	-717.8	72.12	430.68	-326.84	83.857	240.23	-780.63	119.81	375.97	-404.6	57.487	299.08	-437.96	47.038	170.96	-822.03	134.27	502.83	-843.44	267.07	475.34	-820.48	267.58	375.81	-530.2	128.21	284.59	-564.94	120.3	218.21	-650.35	75.534	262.04	-924.32	318.24	404.98	-639	46.728	230.32	-942.37	297.82	437.95	-628.69	45.977	293.92	-935.43	294.37	378.12	-684.52	515.98	511.53	-643.13	461.26	537.42	-690.53	405.44	516.31	-727.07	445.29	499.96	-567.75	834.54	531.66	-501.41	863.92	536.75	-485.17	773.51	538.72	-548.02	746.73	530.07	-435.86	481.09	192.12	-491.2	485.12	183.12	-502.16	423.88	192.87	-448.26	426.7	200.27	-445.73	813.03	148.29	-516.69	811.74	133.73	-499.42	738.53	148.97	-434.78	740.87	161.97
91	0.37611	-245.22	1752.1	229.22	-468.73	1569.7	488.38	-510.96	1535.4	33.075	-482.6	1096.9	498.92	-461.84	1032.4	150.38	-694.55	1079.7	365.15	-681.38	1081.8	233.28	-703.29	1050.1	298.48	-492.36	1137.2	101.73	-506.48	1204.1	493.69	-520.05	949.24	111.26	-542.94	983.86	540.91	-499.82	581.59	521.11	-450.46	559.32	393.96	-449	561.41	335.35	-473.11	566.74	179.28	-703.15	72.46	432.07	-326.73	83.73	240.19	-766.91	118.43	376.96	-404.51	57.461	299.05	-437.93	47.039	170.98	-808.65	133.06	503.72	-832.66	265.06	475.25	-809.59	265.39	375.73	-529.85	128.42	284.59	-564.53	120.68	218.21	-650.16	76.002	262.06	-914.56	314.31	404.52	-638.92	47.136	230.36	-932.16	293.74	437.58	-628.58	46.401	293.95	-925.1	289.95	377.75	-675.98	515.09	511.47	-634.15	460.78	537.46	-681.04	404.52	516.39	-717.9	444.02	499.94	-561.85	834.79	531.59	-495.7	864.71	536.71	-478.83	774.42	538.77	-541.46	747.13	530.12	-433.82	480.85	192.1	-489.14	485.14	183.09	-500.41	423.98	192.84	-446.49	426.54	200.24	-442.11	812.89	148.16	-513.03	811.91	133.56	-496.07	738.62	148.85	-431.44	740.69	161.87
